<svg width="227.05625px" height="346.4px" xmlns="http://www.w3.org/2000/svg" viewBox="136.471875 -98.19999999999999 227.05625 346.4" style="background: rgba(0, 0, 0, 0);" preserveAspectRatio="xMidYMid"><defs><filter id="editing-extrusion" x="-100%" y="-100%" width="300%" height="300%"><feFlood result="color1" flood-color="#2200fd"></feFlood><feConvolveMatrix order="8,8" divisor="1" kernelMatrix="1 0 0 0 0 0 0 0 0 1 0 0 0 0 0 0 0 0 1 0 0 0 0 0 0 0 0 1 0 0 0 0 0 0 0 0 1 0 0 0 0 0 0 0 0 1 0 0 0 0 0 0 0 0 1 0 0 0 0 0 0 0 0 1" in="SourceAlpha" result="extrude"></feConvolveMatrix><feComposite in="color1" in2="extrude" result="comp-extrude" operator="in"></feComposite><feOffset dx="4" dy="4" in="comp-extrude" result="offset-extrude"></feOffset><feMerge><feMergeNode in="offset-extrude"></feMergeNode><feMergeNode in="SourceGraphic"></feMergeNode></feMerge></filter></defs><g filter="url(#editing-extrusion)"><g transform="translate(171.92501258850098, 145.0199966430664)"><path d="M37.99-20.02L89.16-20.02L89.16-20.02Q103.13-20.02 110.64-27.54L110.64-27.54L110.64-27.54Q118.16-35.06 118.16-49.02L118.16-49.02L118.16-91.02L118.16-91.02Q118.16-97.85 116.21-103.22L116.21-103.22L116.21-103.22Q114.26-108.59 110.50-112.35L110.50-112.35L110.50-112.35Q106.74-116.11 101.37-118.07L101.37-118.07L101.37-118.07Q96.00-120.02 89.16-120.02L89.16-120.02L37.99-120.02L37.99-20.02ZM89.16 0L17.97 0L17.97-140.04L89.16-140.04L89.16-140.04Q100.39-140.04 109.42-136.57L109.42-136.57L109.42-136.57Q118.46-133.11 124.85-126.71L124.85-126.71L124.85-126.71Q131.25-120.31 134.72-111.23L134.72-111.23L134.72-111.23Q138.18-102.15 138.18-91.02L138.18-91.02L138.18-49.02L138.18-49.02Q138.18-37.89 134.72-28.81L134.72-28.81L134.72-28.81Q131.25-19.73 124.85-13.33L124.85-13.33L124.85-13.33Q118.46-6.93 109.42-3.47L109.42-3.47L109.42-3.47Q100.39 0 89.16 0L89.16 0Z" fill="#e9ff00"></path></g></g><style>text {
  font-size: 64px;
  font-family: Arial Black;
  dominant-baseline: central;
  text-anchor: middle;
}</style></svg>