<svg width="185.54375px" height="296px" xmlns="http://www.w3.org/2000/svg" viewBox="157.228125 -73 185.54375 296" style="background: rgba(0, 0, 0, 0);" preserveAspectRatio="xMidYMid"><defs><linearGradient id="editing-outline-gradient" x1="-0.5" x2="1.5" y1="0.5000000000000002" y2="0.4999999999999998"><stop offset="0" stop-color="#0004fa"></stop><stop offset="1" stop-color="#fcff00"></stop></linearGradient><filter id="editing-outline" x="-100%" y="-100%" width="300%" height="300%"><feMorphology in="SourceGraphic" operator="dilate" radius="3" result="outline"></feMorphology><feComposite operator="out" in="outline" in2="SourceAlpha"></feComposite></filter></defs><g filter="url(#editing-outline)"><g transform="translate(187.4950065612793, 134.16500091552734)"><path d="M108.68-89.53L108.68-76.08L108.68-76.08Q108.68-51.33 87.55-47.86L87.55-47.86L109.83 0L91.10 0L69.15-47.28L32.10-47.28L32.10 0L15.18 0L15.18-118.33L79.96-118.33L79.96-118.33Q108.68-118.33 108.68-89.53L108.68-89.53ZM32.10-101.42L32.10-64.20L79.05-64.20L79.05-64.20Q85.82-64.20 88.79-67.17L88.79-67.17L88.79-67.17Q91.76-70.14 91.76-76.91L91.76-76.91L91.76-88.71L91.76-88.71Q91.76-95.48 88.79-98.45L88.79-98.45L88.79-98.45Q85.82-101.42 79.05-101.42L79.05-101.42L32.10-101.42Z" fill="url(#editing-outline-gradient)"></path></g></g><style>text {
  font-size: 64px;
  font-family: Arial Black;
  dominant-baseline: central;
  text-anchor: middle;
}</style></svg>